<?xml version="1.0" encoding="UTF-8" standalone="no"?>
<!-- Created with Inkscape (http://www.inkscape.org/) -->

<svg
   xmlns:dc="http://purl.org/dc/elements/1.1/"
   xmlns:cc="http://creativecommons.org/ns#"
   xmlns:rdf="http://www.w3.org/1999/02/22-rdf-syntax-ns#"
   xmlns:svg="http://www.w3.org/2000/svg"
   xmlns="http://www.w3.org/2000/svg"
   xmlns:sodipodi="http://sodipodi.sourceforge.net/DTD/sodipodi-0.dtd"
   xmlns:inkscape="http://www.inkscape.org/namespaces/inkscape"
   id="svg3262"
   sodipodi:docname="bg.svg"
   viewBox="0 0 404.82 344.33"
   version="1.1"
   inkscape:version="0.91 r13725">
  <defs
     id="defs3405" />
  <sodipodi:namedview
     id="namedview3264"
     fit-margin-left="0"
     inkscape:zoom="1.5856882"
     borderopacity="1"
     inkscape:current-layer="svg3262"
     inkscape:cx="202.41"
     inkscape:cy="172.16499"
     inkscape:window-maximized="1"
     showgrid="false"
     fit-margin-right="0"
     bordercolor="#666666"
     inkscape:window-x="282"
     guidetolerance="10"
     objecttolerance="10"
     inkscape:window-y="1192"
     fit-margin-bottom="0"
     inkscape:window-width="1304"
     inkscape:pageopacity="0"
     inkscape:pageshadow="2"
     pagecolor="#ffffff"
     gridtolerance="10"
     inkscape:window-height="745"
     fit-margin-top="0" />
  <g
     id="g4205"
     transform="matrix(1,0,0,-1,0,344.82998)">
    <path
       d="m 379.7865,48.277356 c 2.7175,2.5334 4.2194,4.4816 8.9825,3.1594 5.9309,-1.6465 7.9921,6.7838 0.92922,6.6904 -6.5685,-0.08689 -7.6458,-5.8361 -9.9117,-9.8498 z"
       inkscape:connector-curvature="0"
       style="opacity:1;fill:#000000;stroke:#000000;stroke-width:0.30000001;stroke-linecap:round;stroke-linejoin:round"
       sodipodi:nodetypes="cssc"
       id="path3272" />
    <path
       inkscape:connector-curvature="0"
       style="opacity:1;fill:#000000;stroke:#000000;stroke-width:0.30000001;stroke-linecap:round;stroke-linejoin:round"
       sodipodi:nodetypes="cssc"
       d="m 387.3465,59.677356 c 3.1615,2.9486 4.9088,5.2162 10.45,3.6772 6.8998,-1.9163 9.2979,7.895704 1.081,7.786904 -7.6417,-0.10113 -8.895,-6.792604 -11.531,-11.464004 z"
       id="path4042" />
    <path
       d="m 371.0515,20.648356 c 0.65784,-0.70217 7.5732,-2.5027 7.1757,4.6262 -0.32925,5.9048 -11.415,5.5918 -12.463,-0.21483 -0.4758,-2.6376 -0.11033,-5.7709 2.4894,-8.23 4.5512,-4.3049 12.26,-2.8253 15.414,2.0855 4.1963,6.5325 0.62964,16.543 -5.9643,21.178 -8.6898,6.1078 -20.844,1.6139 -26.446,-3.1826 -26.257,-20.985 -33.502,-17.217 -37.655,-16.234"
       inkscape:connector-curvature="0"
       style="opacity:1;fill:none;stroke:#000000;stroke-width:1px;stroke-linecap:round;stroke-linejoin:round"
       sodipodi:nodetypes="cssssscc"
       id="path4046" />
    <path
       inkscape:connector-curvature="0"
       style="opacity:1;fill:none;stroke:#000000;stroke-width:1px;stroke-linecap:round;stroke-linejoin:round"
       sodipodi:nodetypes="cssssscc"
       d="m 383.4585,92.10636 c 1.1509,0.51817 6.3148,8.3173 -2.7118,10.83 -7.4767,2.0813 -11.779,-11.77 -5.0072,-15.513 3.0761,-1.7005 7.1243,-2.5688 11.28,-0.38798 7.2754,3.8179 8.7958,14.06 3.9319,19.955 -7.568,9.1728 -18.713,7.0508 -27.964,0.14312 -11.156,-8.334 -8.548,-29.674 -7.587,-32.495 2.202,-6.526004 5.141,-14.424004 5.169,-24.510004"
       id="path4051" />
    <path
       d="m 338.5985,50.634356 c -0.97992,0.22035 -6.2509,5.4807 0.38428,8.8845 5.4959,2.8194 11.062,-7.3012 6.3808,-11.305 -2.1263,-1.8187 -5.1433,-3.1435 -8.7311,-2.1061 -6.2811,1.8161 -9.0141,9.5193 -6.2519,14.943 3.6743,7.2146 14.824,9.114104 21.367,3.8338 4.1423,-3.3427 5.8841,-6.9644 7.8611,-13.038 0.6071,-2.6068 0.53739,-5.3297 0.27915,-8.2249"
       inkscape:connector-curvature="0"
       style="opacity:1;fill:none;stroke:#000000;stroke-width:1px;stroke-linecap:round;stroke-linejoin:round"
       sodipodi:nodetypes="cssssscc"
       id="path4053" />
    <path
       inkscape:connector-curvature="0"
       style="opacity:1;fill:none;stroke:#000000;stroke-width:1px;stroke-linecap:round;stroke-linejoin:round"
       sodipodi:nodetypes="cssssscc"
       d="m 241.4895,66.093356 c 0.64297,0.77161 1.6194,8.154104 -5.7162,6.812304 -6.0761,-1.1113 -4.3262,-12.528004 1.8251,-12.853004 2.7942,-0.14735 5.9938,0.63954 8.2076,3.6476 3.8754,5.266 1.3511,13.040004 -4.143,15.659004 -7.3084,3.484 -17.122,-1.8476 -19.282,-9.973704 -1.3946,-5.2467 1.2048,-14.178 2.8218,-15.624 1.1032,-1.8808 4.9322,-4.2572 7.3983,-6.3858"
       id="path4055" />
    <path
       d="m 212.9195,25.768356 c 0.0279,-1.1209 -4.0495,-8.2605 -9.3166,-2.0052 -4.3627,5.1812 4.679,13.965 10.057,9.9884 2.443,-1.8062 4.6067,-4.7112 4.4694,-8.8779 -0.24025,-7.2945 -7.5157,-12.352 -13.865,-10.84 -8.4453,2.0115 -13.206,10.028 -11.604,19.264 2.1125,12.171 15.648,18.1 23.848,18.679 5.8238,0.75382 8.6472,-0.6507 16.472,-4.9775"
       inkscape:connector-curvature="0"
       style="opacity:1;fill:none;stroke:#000000;stroke-width:1px;stroke-linecap:round;stroke-linejoin:round"
       sodipodi:nodetypes="cssssscc"
       id="path4057" />
    <path
       inkscape:connector-curvature="0"
       style="opacity:1;fill:none;stroke:#000000;stroke-width:1px;stroke-linecap:round;stroke-linejoin:round"
       sodipodi:nodetypes="csssssssc"
       d="m 366.1145,209.33636 c 0.46323,-0.57462 1.1062,-6.0302 -4.2514,-4.9804 -4.4377,0.86958 -3.0454,9.2801 1.4614,9.4694 2.0472,0.0859 4.3821,-0.52075 5.9736,-2.7585 2.7861,-3.9175 0.86219,-9.6336 -3.1858,-11.522 -5.3847,-2.5114 -13.283,0.76123 -14.798,6.7619 -1.614,6.3913 7.2064,16.018 10.742,20.428 14.787,18.445 -2.1384,28.17 -11.854,21.26 -6.1778,-4.3938 -8.4268,-18.453 -6.8164,-34.978"
       id="path4059" />
    <path
       d="m 367.6295,298.00636 c 0.39522,0.18053 2.1685,2.8978 -0.93121,3.7732 -2.5675,0.72511 -4.0449,-4.1007 -1.7195,-5.405 1.0563,-0.59246 2.4464,-0.89499 3.8735,-0.13512 2.4983,1.3302 2.9294,5.1976 1.3502,6.9524 -2.1297,2.3664 -7.2176,2.4303 -9.515,-0.82628 -7.0525,-9.9974 -7.8212,-25.901 -9.3363,-49.152"
       inkscape:connector-curvature="0"
       style="opacity:1;fill:none;stroke:#000000;stroke-width:1px;stroke-linecap:round;stroke-linejoin:round"
       sodipodi:nodetypes="csssasc"
       id="path4061" />
    <path
       d="m 312.2105,40.422356 c 0.36067,0.43567 0.90841,4.6039 -3.2065,3.8464 -3.4084,-0.62749 -2.4268,-7.0737 1.0238,-7.2569 1.5674,-0.0832 3.3622,0.3611 4.604,2.0595 2.1739,2.9733 0.46231,7.6077 -2.324,8.8415 -3.7166,1.6458 -10.011,-0.95468 -10.816,-5.6313 -1.52,-8.833 10.08,-20.845 12.832,-22.152"
       inkscape:connector-curvature="0"
       style="opacity:1;fill:none;stroke:#000000;stroke-width:1px;stroke-linecap:round;stroke-linejoin:round"
       sodipodi:nodetypes="csssasc"
       id="path4063" />
    <path
       inkscape:connector-curvature="0"
       style="opacity:1;fill:#000000;stroke:#000000;stroke-width:0.30000001;stroke-linecap:round;stroke-linejoin:round"
       sodipodi:nodetypes="cssc"
       d="m 334.8735,8.459056 c 3.6925,-0.41088 6.149,-0.28085 8.2493,-4.7556 2.6153,-5.5719 10.354,-1.6428 5.6808,3.6542 -4.3456,4.9263 -9.4089,1.9976 -13.93,1.1014 z"
       id="path4067" />
    <path
       d="m 348.4475,10.152356 c 4.2967,-0.47715 7.1553,-0.32522 9.5983,-5.5316 3.0419,-6.4828 12.048,-1.9089 6.6115,4.2535 -5.0557,5.7311 -10.948,2.322 -16.21,1.278 z"
       inkscape:connector-curvature="0"
       style="opacity:1;fill:#000000;stroke:#000000;stroke-width:0.30000001;stroke-linecap:round;stroke-linejoin:round"
       sodipodi:nodetypes="cssc"
       id="path4069" />
    <path
       d="m 97.3295,7.027556 c -3.7119,-0.15745 -6.1538,0.14023 -8.5551,-4.1805 -2.9901,-5.3801 -10.442,-0.93108 -5.4176,4.0341 4.6723,4.6176 9.5235,1.3496 13.973,0.14638 z"
       inkscape:connector-curvature="0"
       style="opacity:1;fill:#000000;stroke:#000000;stroke-width:0.30000001;stroke-linecap:round;stroke-linejoin:round"
       sodipodi:nodetypes="cssc"
       id="path4071" />
    <path
       inkscape:connector-curvature="0"
       style="opacity:1;fill:#000000;stroke:#000000;stroke-width:0.30000001;stroke-linecap:round;stroke-linejoin:round"
       sodipodi:nodetypes="cssc"
       d="m 83.8995,9.644956 c -4.3193,-0.18226 -7.1608,0.16477 -9.954,-4.8623 -3.478,-6.2597 -12.15,-1.0807 -6.3052,4.6956 5.4357,5.372 11.082,1.568 16.259,0.16672 z"
       id="path4073" />
    <path
       d="m 113.9895,41.967356 c 5.9081,0.45936 4.925,-8.0572 -1.5101,-6.8756 -5.3302,0.97874 -3.7315,10.445 1.601,11.319 2.5676,0.42091 5.8906,-0.5852 7.5504,-3.1248 3.002,-4.5931 0.85284,-11.789 -3.9848,-13.879 -5.8323,-2.5191 -13.868,3.6449 -17.791,7.2067 -25.39,23.054 -33.856,-18.603 -2.6462,-14.8 12.006,1.4632 33.748,47.755 87.395,52.530004"
       inkscape:connector-curvature="0"
       style="opacity:1;fill:none;stroke:#000000;stroke-width:1px;stroke-linecap:round;stroke-linejoin:round"
       sodipodi:nodetypes="cssssssc"
       id="path4075" />
    <path
       d="m 214.0795,84.20736 c 0.58204,-11.212 4.9206,-24.551004 14.496,-34.195004 -34.476,34.010004 -41.654,15.053 -58.107,33.948004"
       inkscape:connector-curvature="0"
       style="opacity:1;fill:none;stroke:#000000;stroke-width:1px;stroke-linecap:round"
       sodipodi:nodetypes="ccc"
       id="path4077" />
    <path
       d="m 150.2695,36.841356 c 12.811,16.053 6.5324,19.818 26.585,21.73 11.386,1.0855 24.405,3.9222 50.685,-8.0629 -37.66,35.277004 -57.207,1.0758 -76.744,7.3591"
       inkscape:connector-curvature="0"
       style="opacity:1;fill:none;stroke:#000000;stroke-width:1px;stroke-linecap:round"
       sodipodi:nodetypes="cscc"
       id="path4079" />
    <path
       d="m 169.3495,42.206356 c 0.85076,6.5417 4.6048,11.047 8.0532,16.23"
       inkscape:connector-curvature="0"
       style="opacity:1;fill:none;stroke:#000000;stroke-width:1px"
       sodipodi:nodetypes="cc"
       id="path4081" />
    <path
       d="m 163.0895,55.230356 c -22.17,-9.92 -26.84,-25.141 -54.57,-38.918 -37.475,-11.972 -53.989,25.661 -35.855,45.276 2.3836,2.5784 16.965,13.038004 20.492,18.159004"
       inkscape:connector-curvature="0"
       style="opacity:1;fill:none;stroke:#000000;stroke-width:1px;stroke-linecap:round"
       sodipodi:nodetypes="ccsc"
       id="path4083" />
    <path
       d="m 297.0895,36.383356 c -10.902,-36.95 -50.467,3.8154 -71.892,17.008 l 1.1879,-2.2928 c 25.29,-22.393 61.19,-49.331 70.7,-14.715 z"
       inkscape:connector-curvature="0"
       style="opacity:1;fill:#000000;stroke:#000000;stroke-width:0.30000001;stroke-linejoin:round"
       sodipodi:nodetypes="cccc"
       id="path4085" />
    <path
       d="m 95.7695,51.383356 c -22.955,13.865 -30.878,-13.905 -27.553,-21.639 -0.56347,1.1487 5.5925,-8.285 4.4567,-7.1241 -5.1232,5.2365 -8.6596,7.4835 -8.0514,15.038 2.033,15.484 21.883,26.911 31.147,13.725 z"
       inkscape:connector-curvature="0"
       style="opacity:1;fill:#000000;stroke:#000000;stroke-width:0.2"
       sodipodi:nodetypes="ccscc"
       id="path4087" />
    <path
       d="m 67.0795,32.360356 c -18.881,28.287 -31.046,27.374 -40.344,29.711"
       inkscape:connector-curvature="0"
       style="opacity:1;fill:none;stroke:#000000;stroke-width:1px;stroke-linecap:round"
       sodipodi:nodetypes="cc"
       id="path4089" />
    <path
       d="M 73.3695,62.313356 C 76.5756,72.40436 73.93586,79.93136 68.9672,85.55136"
       inkscape:connector-curvature="0"
       style="opacity:1;fill:none;stroke:#000000;stroke-width:1px;stroke-linejoin:round"
       sodipodi:nodetypes="cc"
       id="path4091" />
    <path
       d="m 347.8835,317.37636 c -0.2,-47.47 9.122,-120.72 13.876,-132.32 70.7,-200.390004 -70.45,-198.850004 -69.94,-128.970004"
       inkscape:connector-curvature="0"
       style="opacity:1;fill:none;stroke:#000000;stroke-width:1px;stroke-linecap:round"
       sodipodi:nodetypes="ccc"
       id="path4093" />
    <path
       d="m 340.5485,77.92936 c 0.74,-3.379 4.212,-8.083004 8.235,-11.302004"
       inkscape:connector-curvature="0"
       style="opacity:1;fill:none;stroke:#000000;stroke-width:1px;stroke-linecap:round"
       sodipodi:nodetypes="cc"
       id="path4095" />
    <path
       d="m 314.4415,20.107356 c 21.223,-8.682 45.083,4.605 46.126,30.116"
       inkscape:connector-curvature="0"
       style="opacity:1;fill:none;stroke:#000000;stroke-width:1px"
       sodipodi:nodetypes="cc"
       id="path4097" />
    <path
       d="m 332.8395,13.887356 c 51.008,7.485 53.216,93.479004 -2.103,107.930004"
       inkscape:connector-curvature="0"
       style="opacity:1;fill:none;stroke:#000000;stroke-width:1px;stroke-linecap:round"
       sodipodi:nodetypes="cc"
       id="path4099" />
    <path
       d="m 330.7805,13.756356 c 64.392,16.581 29.69,91.780004 20.456,97.550004 -18.498,36.446 -3.5305,60.365 17.669,61.139 11.633,0.42489 29.718,-18.882 12.118,-32.754 15.955,21.046 -8.1679,31.773 -19.63,29.238 -19.273,-4.2631 -22.894,-36.132 -9.1934,-58.499 12.872,-4.2 45.791,-75.750004 -19.055,-96.889004 z"
       inkscape:connector-curvature="0"
       style="opacity:1;fill:#000000;stroke:#000000;stroke-width:0.2"
       sodipodi:nodetypes="ccacaccc"
       id="path4101" />
    <path
       d="m 331.9635,241.84636 c 10.216,-9.77 12.279,-41.27 19.957,-61.36 26.925,-70.45 27.711,-99.936 25.949,-122.970004"
       inkscape:connector-curvature="0"
       style="opacity:1;fill:none;stroke:#000000;stroke-width:1px"
       sodipodi:nodetypes="csc"
       id="path4103" />
    <path
       d="m 337.2285,169.32636 c 10.5,-7.98 21.617,-23.79 35.031,-51.95"
       inkscape:connector-curvature="0"
       style="opacity:1;fill:none;stroke:#000000;stroke-width:1px;stroke-linecap:round"
       sodipodi:nodetypes="cc"
       id="path4105" />
    <g
       transform="matrix(0.073871,0.99727,-0.99727,0.073871,405.81,-13.626644)"
       style="opacity:1;fill:#000000;stroke:#000000"
       id="g4113">
      <path
         inkscape:connector-curvature="0"
         style="fill:#000000;stroke:#000000;stroke-width:0.40000001;stroke-linecap:round;stroke-linejoin:round"
         sodipodi:nodetypes="ccc"
         d="m 128.67,86.913 c -8.8603,1.624 -11.14,5.2476 -11.213,8.6108 2.0529,1.4535 8.8733,0.54138 11.213,-8.6108 z"
         id="path4107" />
      <path
         inkscape:connector-curvature="0"
         style="fill:#000000;stroke:#000000;stroke-width:1px"
         sodipodi:nodetypes="ccc"
         d="m 129.41,94.161 c 4.5002,9.2362 4.6758,18.142 -1.0531,18.089 -4.8916,0.11422 -5.293,-8.2642 1.0531,-18.089 z"
         id="path4109" />
      <path
         d="m 131.39,87.252 c 8.5239,2.913 10.244,6.833 9.8201,10.17 -2.2448,1.1349 -8.8561,-0.77315 -9.8201,-10.17 z"
         inkscape:connector-curvature="0"
         style="fill:#000000;stroke:#000000;stroke-width:0.40000001;stroke-linecap:round;stroke-linejoin:round"
         sodipodi:nodetypes="ccc"
         id="path4111" />
    </g>
    <g
       transform="matrix(0.84273,0.53834,-0.53834,0.84273,104.8595,-56.334644)"
       style="opacity:1;fill:#000000;stroke:#000000"
       id="g4118">
      <path
         d="m 128.67,86.913 c -8.8603,1.624 -11.14,5.2476 -11.213,8.6108 2.0529,1.4535 8.8733,0.54138 11.213,-8.6108 z"
         inkscape:connector-curvature="0"
         style="fill:#000000;stroke:#000000;stroke-width:0.40000001;stroke-linecap:round;stroke-linejoin:round"
         sodipodi:nodetypes="ccc"
         id="path4120" />
      <path
         d="m 129.41,94.161 c 4.5002,9.2362 4.6758,18.142 -1.0531,18.089 -4.8916,0.11422 -5.293,-8.2642 1.0531,-18.089 z"
         inkscape:connector-curvature="0"
         style="fill:#000000;stroke:#000000;stroke-width:1px"
         sodipodi:nodetypes="ccc"
         id="path4122" />
      <path
         inkscape:connector-curvature="0"
         style="fill:#000000;stroke:#000000;stroke-width:0.40000001;stroke-linecap:round;stroke-linejoin:round"
         sodipodi:nodetypes="ccc"
         d="m 131.39,87.252 c 8.5239,2.913 10.244,6.833 9.8201,10.17 -2.2448,1.1349 -8.8561,-0.77315 -9.8201,-10.17 z"
         id="path4124" />
    </g>
    <path
       d="m 350.7325,260.81636 -7.0621,10.098"
       inkscape:connector-curvature="0"
       style="opacity:1;fill:none;stroke:#000000;stroke-width:1px"
       sodipodi:nodetypes="cc"
       id="path4126" />
    <path
       d="m 346.3345,272.03636 c -6.4116,13.776 -6.1467,22.118 -3.8408,28.248 -1.7302,-0.24588 -7.0848,-1.7916 -4.3983,-13.876 -2.2643,2.828 -3.3588,7.3475 -5.2036,11.027 -0.68062,1.3574 -5.2281,5.4176 -7.186,6.8143 0.1193,-2.0121 -0.14247,-7.5089 0.61948,-9.0444 2.0337,-4.0982 6.0784,-7.752 7.5577,-12.018 -8.9857,9.1173 -11.725,5.9009 -14.124,4.5222 9.7866,-1.9481 15.763,-11.766 22.797,-19.142 3.3166,-0.87153 3.8004,-0.45133 3.7788,3.4691 z"
       inkscape:connector-curvature="0"
       style="opacity:1;fill:#000000;stroke:#000000;stroke-width:0.2;stroke-linecap:round;stroke-linejoin:round"
       sodipodi:nodetypes="cccscscccc"
       id="path4128" />
    <path
       inkscape:connector-curvature="0"
       style="opacity:1;fill:#000000;stroke:#000000;stroke-width:0.2;stroke-linecap:round;stroke-linejoin:round"
       sodipodi:nodetypes="cccscscccc"
       d="m 69.4195,88.29336 c -8.1483,9.5161 -9.7891,16.199 -9.3185,21.579 -1.3193,-0.57921 -5.2281,-2.9948 -0.41314,-11.995 -2.4256,1.7431 -4.2976,5.089 -6.579,7.6012 -0.84168,0.92681 -5.3536,3.1418 -7.2183,3.8163 0.54124,-1.5712 1.5532,-5.9942 2.499,-7.0444 2.5243,-2.803 6.5469,-4.8067 8.6682,-7.8658 -9.1584,5.2457 -10.619,2.0838 -12.219,0.45654 8.2034,0.62491 15.128,-5.8453 22.35,-10.141 2.8269,0.0439 3.1179,0.48499 2.2308,3.5933 z"
       id="path4130" />
    <g
       transform="matrix(0.95415,-0.29932,-0.29932,-0.95415,49.6495,154.85636)"
       style="opacity:1;fill:#000000;stroke:#000000"
       id="g4132">
      <path
         inkscape:connector-curvature="0"
         style="fill:#000000;stroke:#000000;stroke-width:0.40000001;stroke-linecap:round;stroke-linejoin:round"
         sodipodi:nodetypes="ccc"
         d="m 128.67,86.913 c -8.8603,1.624 -11.14,5.2476 -11.213,8.6108 2.0529,1.4535 8.8733,0.54138 11.213,-8.6108 z"
         id="path4134" />
      <path
         inkscape:connector-curvature="0"
         style="fill:#000000;stroke:#000000;stroke-width:1px"
         sodipodi:nodetypes="ccc"
         d="m 129.41,94.161 c 4.5002,9.2362 4.6758,18.142 -1.0531,18.089 -4.8916,0.11422 -5.293,-8.2642 1.0531,-18.089 z"
         id="path4136" />
      <path
         d="m 131.39,87.252 c 8.5239,2.913 10.244,6.833 9.8201,10.17 -2.2448,1.1349 -8.8561,-0.77315 -9.8201,-10.17 z"
         inkscape:connector-curvature="0"
         style="fill:#000000;stroke:#000000;stroke-width:0.40000001;stroke-linecap:round;stroke-linejoin:round"
         sodipodi:nodetypes="ccc"
         id="path4138" />
    </g>
    <path
       d="m 282.9595,18.170356 c 14.028,12.266 -9.2366,17.459 -15.549,8.0533 -6.961,-12.516 -19.562,6.1296 -2.354,11.646 9.2841,3.4049 15.653,1.4545 23.788,-3.8408 5.4586,-3.9433 11.798,-6.0571 23.912,-2.7257 8.0044,2.2208 8.4656,11.669 8.4869,12.39 0.29884,10.136 -6.865,10.136 -9.7878,10.903 -7.2482,0.66753 -11.758,-4.2881 -12.823,-7.9294 -3.3827,-11.566 -1.9495,-8.7593 -2.0848,-12.198 l 1.9609,-0.50146 c -0.51032,3.4757 -0.6245,9.6218 0.80533,12.08 2.5779,4.4318 5.6786,7.248 12.142,7.3099 9.8168,0.46987 12.973,-17.131 1.3009,-21.124 -10.331,-1.8417 -18.123,4.1772 -27.071,7.8674 -9.072,4.28 -18.653,1.7964 -23.788,-0.18584 -13,-6.9691 -3.1312,-25.324 3.3452,-19.7 18.169,15.033 25.934,7.5597 17.717,-2.0443 z"
       inkscape:connector-curvature="0"
       style="opacity:1;fill:#000000;stroke:#000000;stroke-width:0.2"
       sodipodi:nodetypes="cccccscsccscccccc"
       id="path4140" />
    <path
       d="m 332.0865,241.70636 c 0.63754,3.909 -1.0088,8.1395 -6.7214,7.6196 -0.15813,0.60336 -0.18192,1.4304 -0.0929,1.9514 3.395,-1.6779 7.4207,2.9616 3.4071,6.2568 -3.6019,3.9332 -1.9646,7.3451 -1.8584,10.283 -5.0608,-2.2822 -3.9954,-6.4199 -3.8408,-10.283 -0.80191,-2.3621 -3.4918,-0.974 -3.4691,0.74337 1.5095,5.2494 -4.5596,7.4068 -6.9382,7.186 -4.351,-0.48839 -5.0947,0.31359 -6.7214,0.68142 1.1093,-2.2481 1.073,-4.7606 1.146,-7.2479 0.45587,-5.9111 4.3014,-6.0349 8.0533,-6.3187 2.5144,-0.40393 2.2367,-2.8799 0.24779,-2.9735 -3.4292,0.27121 -6.5474,2.1937 -10.345,-4.0266 3.0455,-0.21526 8.4011,0.50874 9.3387,-1.2235 1.7975,-2.8483 8.0767,-3.9089 7.6661,2.8651 0.46766,-0.034 1.2183,-0.0413 1.7655,-0.34071 -0.60172,-4.4862 4.2008,-6.4964 8.363,-5.1727 z"
       inkscape:connector-curvature="0"
       style="opacity:1;fill:#000000;stroke:#000000;stroke-width:0.2"
       sodipodi:nodetypes="ccccccccccccccccc"
       id="path4142" />
    <path
       inkscape:connector-curvature="0"
       style="opacity:1;fill:#000000;stroke:#000000;stroke-width:0.2"
       sodipodi:nodetypes="ccccccccccccccccc"
       d="m 340.4615,77.61036 c 3.1789,2.3625 4.9419,6.5457 0.47883,10.149 0.30649,0.54324 0.86512,1.1535 1.2917,1.4656 1.2693,-3.5679 7.3891,-3.0396 6.8015,2.12 0.15216,5.3311 3.7027,6.6408 5.8243,8.6763 -5.2219,1.8845 -7.3375,-1.8276 -9.9159,-4.709 -2.22,-1.1376 -3.1849,1.7315 -1.973,2.9486 4.738,2.7179 1.8826,8.4916 0.0213,9.9888 -3.4637,2.6782 -3.4393,3.7717 -4.351,5.1681 -0.7686,-2.3862 -2.5437,-4.1647 -4.2227,-6.0012 -3.7876,-4.561 -1.113,-7.3269 1.383,-10.142 1.5239,-2.0403 -0.39896,-3.6246 -1.892,-2.3072 -2.2731,2.5818 -3.1734,6.1328 -10.23,4.3109 2.0366,-2.2746 6.3855,-5.483 5.8527,-7.3793 -0.69237,-3.2961 3.0773,-8.4287 7.4981,-3.2796 0.31207,-0.34996 0.8459,-0.87775 1.0303,-1.4736 -3.555,-2.8019 -1.5065,-7.5882 2.4031,-9.5353 z"
       id="path4144" />
    <path
       d="m 169.1595,42.624356 c 3.8149,-1.0645 6.9616,-4.3365 4.0888,-9.3015 0.48101,-0.39709 1.2214,-0.76628 1.7316,-0.90449 -0.0955,3.7858 5.8063,5.4886 7.1093,0.46174 2.055,-4.9215 5.839,-4.8699 8.5498,-6.0086 -4.198,-3.6328 -7.5046,-0.92694 -10.945,0.83725 -2.4804,0.26519 -2.3514,-2.759 -0.78361,-3.4602 5.3977,-0.83676 4.8043,-7.2505 3.6042,-9.316 -2.272,-3.7427 -1.8569,-4.7546 -2.2068,-6.3852 -1.5736,1.9515 -3.8687,2.9746 -6.0949,4.0863 -5.172,2.8982 -3.668,6.4396 -2.3485,9.9632 0.69031,2.4513 -1.673,3.24 -2.5939,1.4747 -1.1952,-3.2255 -0.76148,-6.863 -8.002,-7.6946 1.0848,2.8539 3.9928,7.4092 2.8151,8.988 -1.829,2.8282 -0.15208,8.9716 5.8219,5.7518 0.16572,0.43863 0.4746,1.1228 0.43292,1.7452 -4.3236,1.3397 -4.129,6.5423 -1.1784,9.7626 z"
       inkscape:connector-curvature="0"
       style="opacity:1;fill:#000000;stroke:#000000;stroke-width:0.2"
       sodipodi:nodetypes="ccccccccccccccccc"
       id="path4146" />
    <path
       inkscape:connector-curvature="0"
       style="opacity:1;fill:#000000;stroke:#000000;stroke-width:0.2"
       sodipodi:nodetypes="ccccccccccccccccc"
       d="m 152.0195,57.329356 c -3.403,-2.5753 -8.262,-3.1365 -10.643,2.5675 -0.65442,-0.1531 -1.4543,-0.54677 -1.9058,-0.89385 3.3075,-2.3897 0.91429,-8.5605 -4.2454,-6.3957 -5.5602,1.4514 -7.9864,-1.826 -10.732,-3.4063 -0.3735,5.9703 4.1047,7.0383 7.8631,8.8359 1.8466,1.9531 -0.82991,3.8169 -2.4546,2.9307 -4.2411,-4.0807 -9.3516,0.61517 -10.339,2.9924 -1.7251,4.391 -2.8635,4.6958 -4.0328,6.060304 2.7002,0.0749 5.0755,1.3744 7.4818,2.5569 5.8608,2.5414 7.9146,-1.0598 10.074,-4.491304 1.6506,-2.1921 3.8696,-0.68113 2.9575,1.2609 -1.9846,3.130404 -5.3859,5.133304 -1.3719,11.883004 1.7382,-2.7931 3.7445,-8.2598 5.8667,-8.2809 3.6184,-0.27852 7.7897,-5.726704 1.1297,-8.745704 0.26781,-0.42842 0.65264,-1.1399 1.2134,-1.5105 3.9709,2.8317 8.3036,-0.7316 9.1378,-5.3633 z"
       id="path4148" />
    <g
       transform="matrix(0.99999,0.0040788,-0.0040788,0.99999,218.0995,231.30636)"
       style="opacity:1;fill:#000000;stroke:#000000"
       id="g4152">
      <path
         d="m 128.67,86.913 c -8.8603,1.624 -11.14,5.2476 -11.213,8.6108 2.0529,1.4535 8.8733,0.54138 11.213,-8.6108 z"
         inkscape:connector-curvature="0"
         style="fill:#000000;stroke:#000000;stroke-width:0.40000001;stroke-linecap:round;stroke-linejoin:round"
         sodipodi:nodetypes="ccc"
         id="path4154" />
      <path
         d="m 129.41,94.161 c 4.5002,9.2362 4.6758,18.142 -1.0531,18.089 -4.8916,0.11422 -5.293,-8.2642 1.0531,-18.089 z"
         inkscape:connector-curvature="0"
         style="fill:#000000;stroke:#000000;stroke-width:1px"
         sodipodi:nodetypes="ccc"
         id="path4156" />
      <path
         inkscape:connector-curvature="0"
         style="fill:#000000;stroke:#000000;stroke-width:0.40000001;stroke-linecap:round;stroke-linejoin:round"
         sodipodi:nodetypes="ccc"
         d="m 131.39,87.252 c 8.5239,2.913 10.244,6.833 9.8201,10.17 -2.2448,1.1349 -8.8561,-0.77315 -9.8201,-10.17 z"
         id="path4158" />
    </g>
    <path
       inkscape:connector-curvature="0"
       style="opacity:1;fill:#000000;stroke:#000000;stroke-width:0.2;stroke-linecap:round;stroke-linejoin:round"
       sodipodi:nodetypes="cccscscccc"
       d="m 294.2795,58.421356 c 0.84101,15.172004 5.0078,22.403004 9.9318,26.722004 -1.6417,0.59894 -7.0925,1.7605 -10.421,-10.163 -0.66343,3.5615 0.50235,8.0631 0.61011,12.178 0.0398,1.5179 -2.0561,7.2426 -3.1242,9.3975 -0.84347,-1.8306 -3.6661,-6.5547 -3.7181,-8.2681 -0.13892,-4.573 1.7053,-9.7021 0.9985,-14.162 -3.6254,12.277 -7.5573,10.732 -10.323,10.647 7.712,-6.3323 8.3528,-17.808004 11.079,-27.629004 2.5138,-2.3323 3.1387,-2.1899 4.9681,1.2776 z"
       id="path4160" />
    <path
       d="m 216.3995,86.54436 c 0.84101,15.172 5.0078,22.403 9.9318,26.722 -1.6417,0.59894 -7.0925,1.7605 -10.421,-10.163 -0.66343,3.5615 0.50235,8.0632 0.61011,12.178 0.0398,1.5179 -2.0561,7.2426 -3.1242,9.3974 -0.84347,-1.8306 -3.6661,-6.5547 -3.7181,-8.2681 -0.13892,-4.573 1.7053,-9.7021 0.9985,-14.162 -3.6254,12.277 -7.5573,10.732 -10.323,10.647 7.712,-6.3323 8.3528,-17.808 11.079,-27.629 2.5138,-2.3323 3.1387,-2.1899 4.9681,1.2776 z"
       inkscape:connector-curvature="0"
       style="opacity:1;fill:#000000;stroke:#000000;stroke-width:0.2;stroke-linecap:round;stroke-linejoin:round"
       sodipodi:nodetypes="cccscscccc"
       id="path4162" />
    <g
       transform="matrix(0.82845,-0.56006,0.56006,0.82845,-62.3605,82.25136)"
       style="opacity:1;fill:#000000;stroke:#000000"
       id="g4164">
      <path
         inkscape:connector-curvature="0"
         style="fill:#000000;stroke:#000000;stroke-width:0.40000001;stroke-linecap:round;stroke-linejoin:round"
         sodipodi:nodetypes="ccc"
         d="m 128.67,86.913 c -8.8603,1.624 -11.14,5.2476 -11.213,8.6108 2.0529,1.4535 8.8733,0.54138 11.213,-8.6108 z"
         id="path4166" />
      <path
         inkscape:connector-curvature="0"
         style="fill:#000000;stroke:#000000;stroke-width:1px"
         sodipodi:nodetypes="ccc"
         d="m 129.41,94.161 c 4.5002,9.2362 4.6758,18.142 -1.0531,18.089 -4.8916,0.11422 -5.293,-8.2642 1.0531,-18.089 z"
         id="path4168" />
      <path
         d="m 131.39,87.252 c 8.5239,2.913 10.244,6.833 9.8201,10.17 -2.2448,1.1349 -8.8561,-0.77315 -9.8201,-10.17 z"
         inkscape:connector-curvature="0"
         style="fill:#000000;stroke:#000000;stroke-width:0.40000001;stroke-linecap:round;stroke-linejoin:round"
         sodipodi:nodetypes="ccc"
         id="path4170" />
    </g>
    <g
       transform="matrix(0.17138,0.9852,-0.9852,0.17138,88.5695,-80.688644)"
       style="opacity:1;fill:#000000;stroke:#000000"
       id="g4172">
      <path
         d="m 128.67,86.913 c -8.8603,1.624 -11.14,5.2476 -11.213,8.6108 2.0529,1.4535 8.8733,0.54138 11.213,-8.6108 z"
         inkscape:connector-curvature="0"
         style="fill:#000000;stroke:#000000;stroke-width:0.40000001;stroke-linecap:round;stroke-linejoin:round"
         sodipodi:nodetypes="ccc"
         id="path4174" />
      <path
         d="m 129.41,94.161 c 4.5002,9.2362 4.6758,18.142 -1.0531,18.089 -4.8916,0.11422 -5.293,-8.2642 1.0531,-18.089 z"
         inkscape:connector-curvature="0"
         style="fill:#000000;stroke:#000000;stroke-width:1px"
         sodipodi:nodetypes="ccc"
         id="path4176" />
      <path
         inkscape:connector-curvature="0"
         style="fill:#000000;stroke:#000000;stroke-width:0.40000001;stroke-linecap:round;stroke-linejoin:round"
         sodipodi:nodetypes="ccc"
         d="m 131.39,87.252 c 8.5239,2.913 10.244,6.833 9.8201,10.17 -2.2448,1.1349 -8.8561,-0.77315 -9.8201,-10.17 z"
         id="path4178" />
    </g>
    <path
       inkscape:connector-curvature="0"
       style="opacity:1;fill:#000000;stroke:#000000;stroke-width:0.2;stroke-linecap:round;stroke-linejoin:round"
       sodipodi:nodetypes="cccscscccc"
       d="m 337.4145,172.91636 c -10.611,10.876 -13.123,18.835 -12.977,25.383 -1.5512,-0.8049 -6.0919,-4.0363 0.44438,-14.55 -3.0729,1.9188 -5.6021,5.8209 -8.5612,8.6818 -1.0917,1.0554 -6.727,3.381 -9.0369,4.0506 0.77879,-1.8591 2.3518,-7.1326 3.5792,-8.3291 3.2759,-3.1937 8.3023,-5.3021 11.111,-8.8376 -11.498,5.6278 -13.017,1.6859 -14.825,-0.40952 9.8796,1.4022 18.769,-5.8835 27.849,-10.514 3.4181,0.27577 3.7355,0.83248 2.417,4.5246 z"
       id="path4180" />
  </g>
  <metadata
     id="metadata3403">
    <rdf:RDF>
      <cc:Work>
        <dc:format>image/svg+xml</dc:format>
        <dc:type
           rdf:resource="http://purl.org/dc/dcmitype/StillImage" />
        <cc:license
           rdf:resource="http://creativecommons.org/licenses/publicdomain/" />
        <dc:publisher>
          <cc:Agent
             rdf:about="http://openclipart.org/">
            <dc:title>Openclipart</dc:title>
          </cc:Agent>
        </dc:publisher>
        <dc:title>Stylized Flowers (Border)</dc:title>
        <dc:date>2012-08-09T14:04:04</dc:date>
        <dc:description />
        <dc:source>https://openclipart.org/detail/171579/stylized-border-flowers-by-cyberscooty-171579</dc:source>
        <dc:creator>
          <cc:Agent>
            <dc:title>cyberscooty</dc:title>
          </cc:Agent>
        </dc:creator>
        <dc:subject>
          <rdf:Bag>
            <rdf:li>black and white</rdf:li>
            <rdf:li>border</rdf:li>
            <rdf:li>bordure</rdf:li>
            <rdf:li>fleur</rdf:li>
            <rdf:li>flower</rdf:li>
            <rdf:li>grass</rdf:li>
            <rdf:li>herbe</rdf:li>
            <rdf:li>noir et blanc</rdf:li>
            <rdf:li>plant</rdf:li>
            <rdf:li>plante</rdf:li>
            <rdf:li>stylisé</rdf:li>
            <rdf:li>stylized</rdf:li>
          </rdf:Bag>
        </dc:subject>
      </cc:Work>
      <cc:License
         rdf:about="http://creativecommons.org/licenses/publicdomain/">
        <cc:permits
           rdf:resource="http://creativecommons.org/ns#Reproduction" />
        <cc:permits
           rdf:resource="http://creativecommons.org/ns#Distribution" />
        <cc:permits
           rdf:resource="http://creativecommons.org/ns#DerivativeWorks" />
      </cc:License>
    </rdf:RDF>
  </metadata>
</svg>
